HIERARCHY
ROOT Hips
{
	OFFSET 0.00000 0.00000 0.00000
	CHANNELS 6 Xposition Yposition Zposition Zrotation Yrotation Xrotation 
	JOINT LHipJoint
	{
		OFFSET 0 0 0
		CHANNELS 3 Zrotation Yrotation Xrotation
		JOINT LeftUpLeg
		{
			OFFSET 3.13874 -1.57224 1.49786
			CHANNELS 3 Zrotation Yrotation Xrotation
			JOINT LeftLeg
			{
				OFFSET 2.10955 -5.79594 0.00000
				CHANNELS 3 Zrotation Yrotation Xrotation
				JOINT LeftFoot
				{
					OFFSET 2.41843 -6.64458 0.00000
					CHANNELS 3 Zrotation Yrotation Xrotation
					JOINT LeftToeBase
					{
						OFFSET 0.04713 -0.12948 1.66229
						CHANNELS 3 Zrotation Yrotation Xrotation
						End Site
						{
							OFFSET 0.00000 -0.00000 0.85167
						}
					}
				}
			}
		}
	}
	JOINT RHipJoint
	{
		OFFSET 0 0 0
		CHANNELS 3 Zrotation Yrotation Xrotation
		JOINT RightUpLeg
		{
			OFFSET -3.13988 -1.57224 1.49786
			CHANNELS 3 Zrotation Yrotation Xrotation
			JOINT RightLeg
			{
				OFFSET -2.15006 -5.90725 0.00000
				CHANNELS 3 Zrotation Yrotation Xrotation
				JOINT RightFoot
				{
					OFFSET -2.34496 -6.44273 0.00000
					CHANNELS 3 Zrotation Yrotation Xrotation
					JOINT RightToeBase
					{
						OFFSET -0.08699 -0.23900 1.55223
						CHANNELS 3 Zrotation Yrotation Xrotation
						End Site
						{
							OFFSET -0.00000 -0.00000 0.80281
						}
					}
				}
			}
		}
	}
	JOINT LowerBack
	{
		OFFSET 0 0 0
		CHANNELS 3 Zrotation Yrotation Xrotation
		JOINT Spine
		{
			OFFSET 0.01292 1.96517 -0.16495
			CHANNELS 3 Zrotation Yrotation Xrotation
			JOINT Spine1
			{
				OFFSET 0.02122 1.88666 0.19706
				CHANNELS 3 Zrotation Yrotation Xrotation
				JOINT Neck
				{
					OFFSET 0 0 0
					CHANNELS 3 Zrotation Yrotation Xrotation
					JOINT Neck1
					{
						OFFSET -0.01683 1.81591 0.07903
						CHANNELS 3 Zrotation Yrotation Xrotation
						JOINT Head
						{
							OFFSET 0.00815 1.74013 -0.47700
							CHANNELS 3 Zrotation Yrotation Xrotation
							End Site
							{
								OFFSET -0.00204 1.83225 -0.16933
							}
						}
					}
				}
				JOINT LeftShoulder
				{
					OFFSET 0 0 0
					CHANNELS 3 Zrotation Yrotation Xrotation
					JOINT LeftArm
					{
						OFFSET 3.38482 1.41533 0.19802
						CHANNELS 3 Zrotation Yrotation Xrotation
						JOINT LeftForeArm
						{
							OFFSET 4.32712 -0.00000 0.00000
							CHANNELS 3 Zrotation Yrotation Xrotation
							JOINT LeftHand
							{
								OFFSET 3.28587 -0.00000 -0.00000
								CHANNELS 3 Zrotation Yrotation Xrotation
								JOINT LeftFingerBase
								{
									OFFSET 0 0 0
									CHANNELS 3 Zrotation Yrotation Xrotation
									JOINT LeftHandIndex1
									{
										OFFSET 0.43316 -0.00000 -0.00000
										CHANNELS 3 Zrotation Yrotation Xrotation
										End Site
										{
											OFFSET 0.34922 -0.00000 -0.00000
										}
									}
								}
								JOINT LThumb
								{
									OFFSET 0 0 0
									CHANNELS 3 Zrotation Yrotation Xrotation
									End Site
									{
										OFFSET 0.35456 -0.00000 0.35456
									}
								}
							}
						}
					}
				}
				JOINT RightShoulder
				{
					OFFSET 0 0 0
					CHANNELS 3 Zrotation Yrotation Xrotation
					JOINT RightArm
					{
						OFFSET -3.09725 1.62858 -0.14144
						CHANNELS 3 Zrotation Yrotation Xrotation
						JOINT RightForeArm
						{
							OFFSET -4.29104 -0.00000 0.00000
							CHANNELS 3 Zrotation Yrotation Xrotation
							JOINT RightHand
							{
								OFFSET -3.22720 -0.00000 -0.00000
								CHANNELS 3 Zrotation Yrotation Xrotation
								JOINT RightFingerBase
								{
									OFFSET 0 0 0
									CHANNELS 3 Zrotation Yrotation Xrotation
									JOINT RightHandIndex1
									{
										OFFSET -0.54362 -0.00000 -0.00000
										CHANNELS 3 Zrotation Yrotation Xrotation
										End Site
										{
											OFFSET -0.43828 -0.00000 -0.00000
										}
									}
								}
								JOINT RThumb
								{
									OFFSET 0 0 0
									CHANNELS 3 Zrotation Yrotation Xrotation
									End Site
									{
										OFFSET -0.44497 -0.00000 0.44497
									}
								}
							}
						}
					}
				}
			}
		}
	}
}
MOTION
Frames: 12
Frame Time: .0083333
27.4891 16.0171 3.973 0 0 0 0 0 0 -21 0 0 0 0 0 0 0 0 0 0 0 0 0 0 21 0 0 0 0 0 0 0 0 0 0 0 0 0 0 0 0 0 0 0 0 0 0 -16 0 0 21 0 0 11 0 0 0 -8 0 0 0 0 0 0 0 0 0 0 0 0 0 0 0 0 0 0 0 0 8 0 0 0 0 0 0 0 0 0 0 0 0 0 0 0 0 0
27.4891 16.0171 3.9730 -120.7080 -84.6496 132.4190 0.0000 0.0000 0.0000 -28.5909 -34.8949 10.4870 0.0016 0.2614 0.7181 7.5136 -28.4305 -51.8347 8.6557 -16.5809 -54.8915 0.0000 0.0000 0.0000 35.6627 25.0741 6.4489 -0.2153 2.9872 -8.2432 1.9140 -25.0848 -19.0112 -3.5448 11.5287 -34.0845 4.4683 1.5129 6.2573 0.9831 2.5125 -8.3471 -1.8314 0.7629 -12.4237 -8.3608 -12.8093 -15.1053 -0.0486 -17.1243 29.9400 -1.4922 -8.7207 13.2866 0.0000 -0.0000 0.0000 -81.5979 15.8545 17.2626 17.4490 -27.4459 -4.2923 -0.0000 -0.0000 5.8568 23.1412 29.3741 11.8399 -7.1250 0.0000 -0.0000 -9.2924 61.2139 -3.6874 0.0000 -0.0000 0.0000 73.6875 -12.3188 46.0351 -19.3952 29.9068 -5.2264 0.0000 -0.0000 -13.2928 -25.7123 -20.6083 9.6195 7.1250 -0.0000 -0.0000 2.9308 -52.6104 -0.5493
27.4706 16.0166 3.9583 -119.6330 -84.5494 131.3840 0.0000 0.0000 0.0000 -28.4266 -34.8584 10.5820 0.0014 0.2391 0.6569 7.2982 -28.7278 -51.1416 8.3755 -16.3886 -53.9043 0.0000 0.0000 0.0000 35.8585 25.0701 6.5009 -0.2168 2.9973 -8.2713 1.8660 -24.9564 -19.3429 -3.4463 11.3846 -33.5883 4.6223 1.4944 6.1293 1.0124 2.4988 -8.3526 -1.8787 0.7450 -12.3483 -8.3940 -12.7866 -14.8777 0.0779 -17.1130 29.6749 -1.4070 -8.7112 13.1464 -0.0000 -0.0000 0.0000 -81.6080 15.8044 17.4518 17.6371 -27.6899 -4.3793 -0.0000 -0.0000 5.6823 21.6848 28.1938 10.6400 -7.1250 0.0000 -0.0000 -10.2477 59.6671 -3.6931 -0.0000 -0.0000 0.0000 73.7646 -12.4338 45.7447 -19.1740 29.6343 -5.1166 0.0000 -0.0000 -13.1648 -25.6184 -20.5633 9.5604 7.1250 -0.0000 -0.0000 3.0154 -52.5445 -0.5603
27.4505 16.0134 3.9448 -119.2130 -84.4807 130.9810 0.0000 0.0000 0.0000 -28.4253 -34.9505 10.7786 0.0015 0.2474 0.6797 6.9855 -29.2708 -50.1545 7.9470 -16.0802 -52.3717 0.0000 0.0000 0.0000 35.9921 25.0794 6.5661 -0.2152 2.9865 -8.2411 1.8121 -24.8212 -19.7312 -3.3279 11.2078 -32.9841 4.7005 1.4969 6.0498 1.0288 2.5065 -8.3841 -1.9031 0.7413 -12.3336 -8.3781 -12.8067 -14.7333 0.1179 -17.1572 29.5232 -1.3825 -8.7295 13.0585 0.0000 -0.0000 0.0000 -81.5943 15.8659 17.8962 17.9301 -28.0676 -4.5163 -0.0000 -0.0000 5.3454 21.8800 27.9563 10.6620 -7.1250 0.0000 -0.0000 -9.8995 59.4731 -3.5201 0.0000 -0.0000 0.0000 73.7795 -12.6470 45.5721 -18.9799 29.3937 -5.0210 0.0000 -0.0000 -13.0755 -25.5376 -20.5635 9.5265 7.1250 -0.0000 -0.0000 3.0981 -52.5296 -0.5746
27.4288 16.0095 3.9310 -120.3840 -84.4468 132.1880 0.0000 0.0000 0.0000 -28.5347 -35.1061 10.9606 0.0017 0.2698 0.7412 6.6845 -29.9549 -49.2387 7.4648 -15.7111 -50.6111 0.0000 0.0000 0.0000 35.9851 25.2163 6.5618 -0.2073 2.9316 -8.0884 1.7685 -24.7170 -20.0495 -3.1561 10.9435 -32.0897 4.6114 1.5360 5.9447 1.0199 2.5400 -8.4169 -1.8652 0.7644 -12.3064 -8.3613 -12.7655 -14.7846 0.1287 -17.1204 29.6568 -1.3862 -8.7095 13.1221 0.0000 0.0000 0.0000 -81.5599 15.8890 18.4468 18.2614 -28.4906 -4.6733 -0.0000 -0.0000 4.8816 22.2561 28.3626 11.0015 -7.1250 0.0000 -0.0000 -9.7075 59.9732 -3.5672 0.0000 0.0000 0.0000 73.8038 -12.8584 45.4240 -18.8388 29.2178 -4.9519 0.0000 -0.0000 -13.0630 -25.5390 -20.7538 9.6099 7.1250 -0.0000 -0.0000 3.1468 -52.7340 -0.5994
27.4075 16.0061 3.9170 -120.8970 -84.4009 132.7320 0.0000 0.0000 0.0000 -28.5815 -35.1902 11.1357 0.0018 0.2722 0.7478 6.4016 -30.5182 -48.3677 7.0035 -15.3349 -48.8877 0.0000 0.0000 0.0000 36.0414 25.3012 6.5909 -0.2023 2.8961 -7.9897 1.7113 -24.5689 -20.4162 -3.0002 10.6953 -31.2591 4.6001 1.5528 5.8495 1.0187 2.5539 -8.4404 -1.8594 0.7718 -12.2740 -8.3789 -12.7351 -14.7223 0.2124 -17.1028 29.6224 -1.3440 -8.6956 13.1054 -0.0000 -0.0000 0.0000 -81.5274 15.9063 18.9315 18.5708 -28.8819 -4.8218 -0.0000 -0.0000 4.5022 22.6503 28.6967 11.3304 -7.1250 0.0000 -0.0000 -9.4547 60.4066 -3.5710 -0.0000 -0.0000 0.0000 73.8441 -13.0386 45.2229 -18.6765 29.0147 -4.8729 0.0000 -0.0000 -13.0101 -25.4759 -20.7875 9.5977 7.1250 -0.0000 -0.0000 3.2206 -52.7583 -0.6154
27.3851 16.0026 3.9031 -121.6970 -84.3703 133.5640 0.0000 0.0000 0.0000 -28.6579 -35.2554 11.3171 0.0017 0.2670 0.7336 6.1162 -31.0708 -47.4903 6.5113 -14.9061 -47.0008 0.0000 0.0000 0.0000 36.0709 25.3981 6.6220 -0.1966 2.8551 -7.8757 1.6483 -24.4039 -20.8010 -2.8318 10.4177 -30.3402 4.5691 1.5685 5.7620 1.0051 2.5635 -8.4627 -1.8555 0.7783 -12.2452 -8.4003 -12.6972 -14.6614 0.3138 -17.0788 29.5856 -1.2938 -8.6770 13.0902 0.0000 -0.0000 0.0000 -81.4807 15.9262 19.4447 18.8966 -29.2900 -4.9801 -0.0000 -0.0000 4.1111 23.2873 29.2286 11.8688 -7.1250 0.0000 -0.0000 -9.0395 61.1027 -3.5623 0.0000 -0.0000 0.0000 73.8932 -13.2114 45.0214 -18.5268 28.8264 -4.8005 0.0000 -0.0000 -12.9529 -25.4061 -20.7625 9.5574 7.1250 -0.0000 -0.0000 3.2855 -52.7184 -0.6246
27.3615 15.9994 3.8890 -122.6280 -84.3476 134.5310 0.0000 0.0000 0.0000 -28.7385 -35.2886 11.4951 0.0015 0.2496 0.6857 5.8262 -31.6075 -46.5977 5.9972 -14.4257 -44.9706 0.0000 0.0000 0.0000 36.0875 25.5007 6.6553 -0.1909 2.8136 -7.7602 1.5835 -24.2323 -21.1780 -2.6633 10.1289 -29.3950 4.5382 1.5795 5.6794 0.9819 2.5663 -8.4852 -1.8613 0.7809 -12.2198 -8.4150 -12.6558 -14.5965 0.4206 -17.0513 29.5336 -1.2408 -8.6557 13.0674 -0.0000 0.0000 0.0000 -81.4229 15.9444 19.9623 19.2272 -29.7000 -5.1429 -0.0000 -0.0000 3.7081 23.7924 29.4626 12.2355 -7.1250 0.0000 -0.0000 -8.5968 61.4671 -3.4606 -0.0000 0.0000 0.0000 73.9505 -13.3786 44.8202 -18.3924 28.6567 -4.7359 0.0000 -0.0000 -12.8708 -25.3414 -20.6687 9.4896 7.1250 -0.0000 -0.0000 3.3268 -52.6057 -0.6233
27.3368 15.9966 3.8746 -123.4990 -84.3221 135.4500 0.0000 0.0000 0.0000 -28.7993 -35.2939 11.6607 0.0012 0.2240 0.6155 4.8573 -34.6097 -44.0437 6.0149 -14.4428 -45.0417 0.0000 0.0000 0.0000 36.1100 25.6042 6.6884 -0.1854 2.7732 -7.6480 1.5115 -24.0451 -21.5917 -2.4856 9.8116 -28.3689 4.5242 1.5850 5.6019 0.9555 2.5635 -8.5122 -1.8794 0.7787 -12.2023 -8.4067 -12.6160 -14.5209 0.5114 -17.0248 29.4588 -1.1948 -8.6351 13.0286 -0.0000 0.0000 0.0000 -81.3560 15.9633 20.4747 19.5535 -30.1007 -5.3056 -0.0000 -0.0000 3.2959 23.7286 29.2781 12.1322 -7.1250 0.0000 -0.0000 -8.5626 61.2631 -3.4053 -0.0000 0.0000 0.0000 74.0112 -13.5469 44.6187 -18.2741 28.5067 -4.6793 0.0000 -0.0000 -12.7562 -25.2647 -20.5222 9.3944 7.1250 -0.0000 -0.0000 3.3663 -52.4346 -0.6166
27.3108 15.9939 3.8596 -124.2610 -84.2881 136.2710 0.0000 0.0000 0.0000 -28.8284 -35.2758 11.7996 0.0009 0.1978 0.5434 3.8896 -37.0044 -41.5029 5.9083 -14.3389 -44.6125 0.0000 0.0000 0.0000 36.1417 25.7136 6.7097 -0.1796 2.7297 -7.5270 1.4302 -23.8419 -22.0619 -2.3061 9.4764 -27.2973 4.5299 1.5875 5.5247 0.9289 2.5588 -8.5449 -1.9082 0.7734 -12.1912 -8.3675 -12.5728 -14.4399 0.5761 -16.9926 29.3758 -1.1604 -8.6127 12.9789 -0.0000 -0.0000 0.0000 -81.2837 15.9773 20.9589 19.8657 -30.4802 -5.4631 -0.0000 -0.0000 2.9012 23.8900 29.1077 12.1593 -7.1250 0.0000 -0.0000 -8.2792 61.1299 -3.2656 -0.0000 -0.0000 0.0000 74.0743 -13.7123 44.4168 -18.1694 28.3735 -4.6295 0.0000 -0.0000 -12.6064 -25.1761 -20.3749 9.2943 7.1250 -0.0000 -0.0000 3.4179 -52.2604 -0.6114
27.2833 15.9913 3.8441 -124.8860 -84.2460 136.9620 0.0000 0.0000 0.0000 -28.8313 -35.2416 11.9175 0.0008 0.1774 0.4873 2.9566 -38.9062 -39.0407 5.6956 -14.1267 -43.7474 0.0000 0.0000 0.0000 36.1818 25.8243 6.7193 -0.1731 2.6803 -7.3899 1.3367 -23.6149 -22.5982 -2.1302 9.1321 -26.2094 4.5541 1.5878 5.4436 0.9041 2.5529 -8.5797 -1.9452 0.7657 -12.1797 -8.3031 -12.5135 -14.3699 0.6192 -16.9393 29.3210 -1.1359 -8.5812 12.9369 -0.0000 0.0000 0.0000 -81.2113 15.9774 21.3910 20.1496 -30.8221 -5.6078 -0.0000 -0.0000 2.5367 23.7204 28.5312 11.8527 -7.1250 0.0000 -0.0000 -8.1519 60.4988 -3.0927 -0.0000 0.0000 0.0000 74.1402 -13.8737 44.2170 -18.0842 28.2648 -4.5890 0.0000 -0.0000 -12.4408 -25.0914 -20.2787 9.2181 7.1250 -0.0000 -0.0000 3.4787 -52.1419 -0.6122
27.2534 15.9891 3.8279 -125.3130 -84.1999 137.4440 0.0000 0.0000 0.0000 -28.8196 -35.1922 12.0303 0.0007 0.1703 0.4678 2.0669 -40.4384 -36.6686 5.4086 -13.8297 -42.5595 0.0000 0.0000 0.0000 36.2335 25.9205 6.7265 -0.1656 2.6217 -7.2273 1.2262 -23.3460 -23.2032 -1.9567 8.7754 -25.0952 4.5990 1.5829 5.3588 0.8825 2.5424 -8.6067 -1.9893 0.7547 -12.1568 -8.2242 -12.4254 -14.3151 0.6590 -16.8516 29.3120 -1.1121 -8.5334 12.9133 0.0000 0.0000 0.0000 -81.1411 15.9557 21.7800 20.3972 -31.1179 -5.7352 -0.0000 -0.0000 2.1679 23.2852 27.7430 11.3285 -7.1250 0.0000 -0.0000 -8.2233 59.5875 -2.9412 0.0000 0.0000 0.0000 74.2131 -14.0218 44.0112 -18.0204 28.1833 -4.5589 0.0000 -0.0000 -12.2817 -25.0233 -20.2481 9.1770 7.1250 -0.0000 -0.0000 3.5400 -52.0967 -0.6191
